<?xml version="1.0" encoding="UTF-8"?>
<svg width="529px" height="441px" viewBox="0 0 529 441" version="1.1" xmlns="http://www.w3.org/2000/svg" xmlns:xlink="http://www.w3.org/1999/xlink">
    <title>编组</title>
    <defs>
        <linearGradient x1="96.9081714%" y1="45.5576272%" x2="-0.510305661%" y2="57.2507824%" id="linearGradient-1">
            <stop stop-color="#FFBDD1" offset="0%"></stop>
            <stop stop-color="#7795FF" stop-opacity="0.58" offset="100%"></stop>
        </linearGradient>
        <ellipse id="path-2" cx="46.568" cy="34.526" rx="18.6592972" ry="41.8762193"></ellipse>
        <ellipse id="path-4" cx="40.804" cy="46.455" rx="17.8734037" ry="43.7911009"></ellipse>
        <ellipse id="path-6" cx="19.867" cy="41.034" rx="14.9385076" ry="39.1982081"></ellipse>
    </defs>
    <g id="Page-1" stroke="none" stroke-width="1" fill="none" fill-rule="evenodd">
        <g id="Manage-Expenses" transform="translate(-119.000000, -94.000000)">
            <g id="编组" transform="translate(119.000000, 94.000000)">
                <g id="bg" transform="translate(68.000000, 0.000000)" fill="url(#linearGradient-1)" fill-opacity="0.15" fill-rule="nonzero">
                    <path d="M19.03,224.295 C68.644,279.316 110.609,237.04 158.764,214.01 C242.637,173.898 338.767,273.349 381.911,220.169 C413.865,180.783 385.639,79.314 318.265,32.279 C259.591,-8.6811 193.892,-8.232 116.441,25.185 C33.951,60.776 -34.364,165.083 19.03,224.295 Z" id="Shape"></path>
                </g>
                <g id="shadows" transform="translate(69.000000, 309.000000)" fill="#F3F3F3" fill-rule="nonzero">
                    <ellipse id="Oval" cx="77.5" cy="31.5" rx="77.5" ry="31.5"></ellipse>
                    <ellipse id="Oval" cx="203.5" cy="100.5" rx="77.5" ry="31.5"></ellipse>
                </g>
                <g id="plants" transform="translate(0.000000, 86.000000)">
                    <g id="plant-3" transform="translate(435.000000, 105.000000)" fill-rule="nonzero">
                        <path d="M21.159,93.114 C3.131,111.319 4.66,140.955 7.678,153.497 C15.864,139.135 26.225,118.988 47.765,105.476 C72.418,90.01 85.832,71.584 93.96,55.063 C86.121,67.035 43.694,70.357 21.159,93.114 Z" id="Shape" fill-opacity="0.7" fill="#7795FF"></path>
                        <path d="M25.022,68.795 C6.994,87 5.426,130.277 8.444,142.819 C16.631,128.458 29.76,103.982 51.444,86.319 C73.234,68.57 86.742,44.102 87.526,26.816 C78.444,41.819 47.557,46.038 25.022,68.795 Z" id="Shape" fill-opacity="0.7" fill="#7795FF"></path>
                        <path d="M9.9,73.66 C-5.486,102.638 1.924,139.528 7.552,154.35 C13.345,133.5 28.612,101.492 43.99,81.932 C63.128,57.591 68.135,24.375 73.445,0.819 C67.549,18.539 29.132,37.438 9.9,73.66 Z" id="Shape" fill="#5970C4"></path>
                    </g>
                    <g id="plant-2" transform="translate(428.000000, 0.000000)" fill="#FFBDD1">
                        <path d="M4.936,173.75 C1.329,204.353 10.322,244.824 15.51,259.195 L12.246,265.491 C7.131,246.624 -2.426,201.765 1.615,173.279 C6.81,136.667 24.008,106.975 33.561,91.376 L34.642,93.308 C26.404,106.011 8.928,139.884 4.936,173.75 Z" id="Shape" fill-rule="nonzero"></path>
                        <path d="M90.325,1.106 C82.692,10.562 68.454,31.236 62.881,42.035 C68.525,33.075 82.168,12.517 91.592,1.962 L91.511,1.77 C96.042,5.079 97.755,16.265 91.575,39.176 C86.127,38.218 80.347,37.864 76.601,38.724 C79.858,38.86 85.559,39.436 91.147,40.736 C89.872,45.308 88.292,50.329 86.37,55.828 C85.746,57.613 85.066,59.345 84.334,61.025 C79.918,58.465 75.22,56.384 71.769,55.876 C74.561,57.104 79.211,59.471 83.704,62.433 C80.455,69.487 76.298,75.6 71.645,80.863 C67.45,77.542 62.824,74.634 59.326,73.615 C61.997,75.255 66.446,78.346 70.606,82.015 C55.264,98.701 35.014,106.496 24.015,108.518 C24.014,107.056 23.987,105.576 23.959,104.069 C23.789,94.938 23.6,84.798 29.259,71.557 C29.892,70.076 30.567,68.588 31.279,67.096 C34.328,69.233 37.092,72.444 38.374,74.211 C37.521,71.546 34.599,68.189 31.84,65.938 C37.38,54.632 45.01,43.184 52.873,33.108 C55.484,35.184 57.764,37.862 58.893,39.418 C58.165,37.145 55.933,34.369 53.581,32.205 C54.982,30.427 56.389,28.693 57.791,27.013 C60.659,29.14 63.215,32.123 64.433,33.802 C63.648,31.35 61.114,28.314 58.565,26.091 C70.177,12.323 81.32,2.337 86.019,1.001 C87.558,0.563 89.024,0.575 90.325,1.106 Z" id="Shape"></path>
                    </g>
                    <g id="plant-1" transform="translate(0.000000, 155.000000)">
                        <g id="Clipped" transform="translate(0.000000, 26.000000)">
                            <mask id="mask-3" fill="white">
                                <use xlink:href="#path-2"></use>
                            </mask>
                            <g id="Oval" transform="translate(46.568000, 34.526000) scale(-1, 1) rotate(66.856252) translate(-46.568000, -34.526000) "></g>
                            <ellipse id="Oval" fill="#BECCFF" fill-rule="nonzero" mask="url(#mask-3)" transform="translate(41.351000, 47.143000) scale(-1, 1) rotate(66.856252) translate(-41.351000, -47.143000) " cx="41.351" cy="47.143" rx="18.6592972" ry="41.8762193"></ellipse>
                        </g>
                        <g id="Clipped" transform="translate(19.000000, 0.000000)">
                            <mask id="mask-5" fill="white">
                                <use xlink:href="#path-4"></use>
                            </mask>
                            <g id="Oval" transform="translate(40.804000, 46.455000) scale(-1, 1) rotate(36.845284) translate(-40.804000, -46.455000) "></g>
                            <ellipse id="Oval" fill="#8FA6F9" fill-rule="nonzero" mask="url(#mask-5)" transform="translate(30.818000, 54.899000) scale(-1, 1) rotate(36.845284) translate(-30.818000, -54.899000) " cx="30.818" cy="54.899" rx="17.8734037" ry="43.7911009"></ellipse>
                        </g>
                        <g id="Clipped" transform="translate(60.000000, 7.000000)">
                            <mask id="mask-7" fill="white">
                                <use xlink:href="#path-6"></use>
                            </mask>
                            <g id="Oval" transform="translate(19.867000, 41.034000) scale(-1, 1) rotate(6.357072) translate(-19.867000, -41.034000) "></g>
                            <ellipse id="Oval" fill="#6785EF" fill-rule="nonzero" mask="url(#mask-7)" transform="translate(9.035000, 42.492000) scale(-1, 1) rotate(6.357072) translate(-9.035000, -42.492000) " cx="9.035" cy="42.492" rx="14.9385076" ry="39.1982081"></ellipse>
                        </g>
                    </g>
                </g>
                <g id="ui" transform="translate(269.000000, 2.000000)" fill-rule="nonzero">
                    <polygon id="Shape" fill="#213375" points="151.493 59.987 151.493 263.592 148.216 263.592 46.618 198.045 45.799 0.1753 50.305 0.1753"></polygon>
                    <polygon id="Shape" fill="#3E5193" points="43.341 199.684 45.799 0.1753 148.216 61.626 148.216 263.592"></polygon>
                    <polygon id="Shape" fill="#4F70E4" points="130.19 73.916 130.19 277.521 126.913 277.521 25.315 211.974 24.496 14.104 29.002 14.104"></polygon>
                    <polygon id="Shape" fill="#6785EF" points="22.038 213.612 24.496 14.104 126.913 75.554 126.913 277.521"></polygon>
                    <polygon id="Shape" fill="#B2C3FF" points="108.888 88.664 108.888 292.269 105.61 292.269 4.012 226.722 3.193 28.852 7.699 28.852"></polygon>
                    <polygon id="Shape" fill="#E8EDFF" points="0.735 228.361 3.193 28.852 105.61 90.302 105.61 292.269"></polygon>
                    <polygon id="Shape" fill-opacity="0.3" fill="#FFFFFF" points="8.928 80.88 8.928 47.287 99.465 100.134 99.465 135.366"></polygon>
                    <ellipse id="Oval" fill="#FFFFFF" transform="translate(21.182000, 72.079000) rotate(-1.594970) translate(-21.182000, -72.079000) " cx="21.182" cy="72.079" rx="5.93676" ry="10.3112"></ellipse>
                    <polygon id="Shape" fill="#B2C3FF" points="31.87 71.867 31.87 69 60.956 86.615 60.956 89.483"></polygon>
                    <polygon id="Shape" fill="#B2C3FF" points="31.87 86.206 31.87 83.338 48.257 93.58 48.257 96.447"></polygon>
                    <polygon id="Shape" fill="#B2C3FF" points="31.87 78.832 31.87 75.964 69.969 99.315 69.969 102.183"></polygon>
                    <polygon id="Shape" fill="#6785EF" points="84.963 108.796 84.307 112.307 87.913 118.979 94.14 108.796 93.812 104.231 87.913 114.765"></polygon>
                    <polygon id="Shape" fill-opacity="0.3" fill="#FFFFFF" points="8.928 121.437 8.928 87.844 99.465 140.691 99.465 175.923"></polygon>
                    <ellipse id="Oval" fill="#FFFFFF" transform="translate(21.182000, 112.636000) rotate(-1.594970) translate(-21.182000, -112.636000) " cx="21.182" cy="112.636" rx="5.93676" ry="10.3112"></ellipse>
                    <polygon id="Shape" fill="#B2C3FF" points="31.87 112.424 31.87 109.557 60.956 127.172 60.956 130.04"></polygon>
                    <polygon id="Shape" fill="#B2C3FF" points="31.87 126.763 31.87 123.895 48.257 134.137 48.257 137.004"></polygon>
                    <polygon id="Shape" fill="#B2C3FF" points="31.87 119.389 31.87 116.521 69.969 139.872 69.969 142.74"></polygon>
                    <polygon id="Shape" fill="#6785EF" points="84.963 149.353 84.307 152.864 87.913 159.536 94.14 149.353 93.812 144.788 87.913 155.322"></polygon>
                    <polygon id="Shape" fill-opacity="0.3" fill="#FFFFFF" points="8.928 163.223 8.928 129.63 99.465 182.478 99.465 217.709"></polygon>
                    <ellipse id="Oval" fill="#FFFFFF" transform="translate(21.182000, 154.422000) rotate(-1.594970) translate(-21.182000, -154.422000) " cx="21.182" cy="154.422" rx="5.93676" ry="10.3112"></ellipse>
                    <polygon id="Shape" fill="#B2C3FF" points="31.87 154.211 31.87 151.343 60.956 168.959 60.956 171.826"></polygon>
                    <polygon id="Shape" fill="#B2C3FF" points="31.87 168.549 31.87 165.681 48.257 175.923 48.257 178.791"></polygon>
                    <polygon id="Shape" fill="#B2C3FF" points="31.87 161.175 31.87 158.307 69.969 181.658 69.969 184.526"></polygon>
                    <polygon id="Shape" fill="#6785EF" points="84.963 191.139 84.307 194.651 87.913 201.322 94.14 191.139 93.812 186.574 87.913 197.109"></polygon>
                    <polygon id="Shape" fill-opacity="0.3" fill="#FFFFFF" points="8.928 205.009 8.928 171.417 99.465 224.264 99.465 259.495"></polygon>
                    <ellipse id="Oval" fill="#FFFFFF" transform="translate(21.182000, 196.208000) rotate(-1.594970) translate(-21.182000, -196.208000) " cx="21.182" cy="196.208" rx="5.93676" ry="10.3112"></ellipse>
                    <polygon id="Shape" fill="#B2C3FF" points="31.87 195.997 31.87 193.129 60.956 210.745 60.956 213.612"></polygon>
                    <polygon id="Shape" fill="#B2C3FF" points="31.87 210.335 31.87 207.467 48.257 217.709 48.257 220.577"></polygon>
                    <polygon id="Shape" fill="#B2C3FF" points="31.87 202.961 31.87 200.093 69.969 223.444 69.969 226.312"></polygon>
                    <polygon id="Shape" fill="#C4C4C4" points="84.963 232.925 84.307 236.437 87.913 243.109 94.14 232.925 93.812 228.36 87.913 238.895"></polygon>
                    <ellipse id="Oval" fill="#EE7298" transform="translate(95.960000, 238.115000) rotate(-1.594970) translate(-95.960000, -238.115000) " cx="95.96" cy="238.115" rx="18.3015" ry="30.1759"></ellipse>
                    <ellipse id="Oval" fill="#F796B3" transform="translate(92.790000, 238.115000) rotate(-1.594970) translate(-92.790000, -238.115000) " cx="92.79" cy="238.115" rx="18.3015" ry="30.1759"></ellipse>
                    <polygon id="Shape" fill="#FFFFFF" points="90.223 250.254 90.223 224.854 93.091 226.493 93.091 251.892"></polygon>
                    <polygon id="Shape" fill="#FFFFFF" points="83.669 235.505 83.669 232.228 100.875 242.88 100.875 245.747"></polygon>
                </g>
                <g id="character-2" transform="translate(244.000000, 162.000000)" fill-rule="nonzero">
                    <path d="M31.962,172.527 C29.963,166.253 27.213,150.067 26.439,139.834 L51.037,138 L51.037,189.564 L43.477,239.733 C41.892,241.221 40.322,241.152 38.876,240.348 C37.856,234.668 33.161,216.257 32.57,210.513 C31.98,204.768 35.722,193.506 37.666,188.592 C37.725,187.92 33.962,178.8 31.962,172.527 Z" id="Shape" fill="#FCD8E3"></path>
                    <path d="M13.518,155.765 C12.379,149.875 12.106,134.1 12.698,124.908 L33.5,124.908 L27,168.968 L12.873,214.702 C11.114,215.756 9.207,215.203 7.889,214.249 C7.637,209.049 7.682,192.718 7.861,187.532 C8.04,182.346 13.218,172.995 15.785,168.968 C15.932,168.382 14.656,161.655 13.518,155.765 Z" id="Shape" fill="#FCD8E3"></path>
                    <path d="M43.969,235.804 C41.886,237.039 38.863,235.668 37.611,234.828 C36.512,240.704 34.719,252.906 36.336,254.708 C38.356,256.961 45.584,256.127 50.883,256.293 C55.122,256.425 58.709,255.895 59.449,254.929 C59.682,253.411 59.099,252.069 58.778,251.589 C57.525,252.044 55.322,250.498 52.529,249.422 C47.532,247.497 44.8,239.385 43.969,235.804 Z" id="Shape" fill="#E1A7B9"></path>
                    <path d="M14.024,211.531 C11.255,213.179 8.915,212.218 8.091,211.531 C7.432,217.022 6.212,228.52 6.608,230.579 C7.102,233.153 8.091,234.183 12.046,234.183 C16.001,234.183 21.934,231.094 21.934,229.549 C21.934,228.314 20.945,226.289 20.451,225.431 C18.473,226.255 16.99,224.401 16.496,223.372 C15.309,222.548 14.353,215.135 14.024,211.531 Z" id="Shape" fill="#E1A7B9"></path>
                    <path d="M11.518,116 C11.518,107.664 15.595,99.185 18.313,96.467 L21.032,94.202 C30.545,94.504 52,85.5 48.579,99.638 C47.396,104.532 47.975,110.99 48.579,112.5 C51,130.13 53,143.5 59,159.5 C57.188,162.037 47.637,166.255 39.5,167.5 C19.646,170.537 9.002,161.726 4.576,158.063 L4.5,158 C4.5,158 6.409,150.143 7.5,145 C10.664,130.081 11.518,126.42 11.518,116 Z" id="Shape" fill="#3C56C6"></path>
                    <path d="M1.757,99.228 L1.757,95.561 L6.716,95.561 L6.716,99.752 C6.716,100.276 7.113,102.057 8.7,104.99 C10.287,107.924 8.039,113.198 7.212,115.468 C6.419,117.563 4.237,115.642 3.245,114.42 C3.245,112.848 0.766,108.134 0.27,106.038 C-0.127,104.362 1.096,100.8 1.757,99.228 Z" id="Shape" fill="#FCD8E3"></path>
                    <path d="M103.094,77.618 C101.078,78.022 95.868,81.821 93.516,83.671 L95.028,89.219 C97.045,88.714 101.884,87.706 105.111,87.706 C108.337,87.706 109.816,86.024 110.152,85.184 C110.992,82.662 112.37,77.316 111.16,76.105 C109.648,74.592 105.615,77.114 103.094,77.618 Z" id="Shape" fill="#FCD8E3"></path>
                    <path d="M35.439,38.045 C32.817,41.65 31.479,41.596 30.523,41.322 L30.523,46.648 C30.523,47.468 33.8,50.745 38.716,53.613 C42.649,55.907 49.094,51.564 51.825,49.106 C48.876,47.795 45.68,43.371 48.138,38.045 C48.138,38.045 50.596,37.635 51.825,35.177 C53.054,32.719 55.594,28.869 57.561,21.658 C60.019,12.646 52.235,6.091 45.68,4.862 C39.126,3.633 34.784,8.068 32.981,14.284 C31.598,19.05 32.121,25.461 35.439,29.442 C37.487,31.9 38.061,34.44 35.439,38.045 Z" id="Shape" fill="#FCD8E3"></path>
                    <path d="M18.853,84.062 C20.445,90.431 15.682,100.477 15.682,100.477 C25.649,111.803 44.676,111.369 46.488,108.651 C48.3,105.933 48.579,99.957 49.938,91.696 C49.938,91.696 54.695,77.893 52.204,72.91 C55.828,80.158 65.881,94.202 71.77,97.826 C73.383,98.818 97.14,89.219 97.14,89.219 C97.502,85.957 95.63,84.688 94.422,82.423 L72.05,85.141 C72.05,85.141 67.373,77.413 63.529,62.037 C61.264,52.976 53.5,56.5 51.384,47.54 C50.327,50.107 42.777,53.158 37.34,50.258 C31.904,47.359 33.547,45.067 34,42.5 C34,42.5 33.5,44.572 27.5,45 C23.963,45.252 21.128,44.373 17,47 C12.017,50.171 5.073,61.864 2.564,75.001 C1.179,82.25 1.917,99.465 1.917,99.465 C1.917,99.465 7.807,103.089 7.807,97.2 C8.713,94.481 10.265,81.344 10.265,81.344 C10.265,81.344 13.243,72.283 18.227,63.676 C18.227,70.924 17.041,76.813 18.853,84.062 Z" id="Shape" fill="#FFBDD1"></path>
                    <path d="M29.607,16.627 C30.96,7.829 38.905,2.245 42.709,0.554 C44.54,-0.292 49.725,-0.8 55.81,3.937 C61.896,8.675 60.037,16.909 58.346,20.433 C55.641,25.171 54.965,39.326 54.965,45.812 C52.26,41.751 52.429,31.995 52.852,27.624 C50.739,33.123 52.007,38.621 52.007,42.005 C52.007,45.389 56.233,57.655 54.965,58.501 C53.951,59.178 50.034,60.757 48.203,61.462 L46.513,45.812 L46.513,62.308 C45.245,63.577 38.483,64 36.792,64 C35.44,64 36.229,56.668 36.792,53.003 L34.679,62.308 C29.269,62.646 23.972,57.655 22,55.117 C24.958,52.157 27.917,27.624 29.607,16.627 Z" id="Shape" fill="#3C56C6"></path>
                </g>
                <g id="character-1" transform="translate(107.000000, 89.000000)" fill-rule="nonzero">
                    <path d="M0.506,160.615 C0.507,158.297 1.599,154.606 2.965,150.783 L2.965,145.867 L7.881,145.867 C7.881,147.505 7.389,151.438 8.7,152.422 C10.011,153.405 11.158,163.483 11.158,165.531 C11.158,167.579 8.7,164.712 8.7,164.712 C8.372,169.955 5.832,169.628 3.784,169.628 C0.916,169.628 0.506,163.073 0.506,160.615 Z" id="Shape" fill="#FCD8E3"></path>
                    <path d="M133.006,18.581 L126.684,24.009 L131.2,30.34 L135.264,25.365 C136.468,24.31 139.238,22.199 140.683,22.199 C142.489,22.199 147.456,15.868 149.714,12.249 C151.972,8.631 148.36,0.49 147.456,0.038 C146.553,-0.414 137.522,10.893 137.07,12.249 C136.709,13.335 134.21,16.923 133.006,18.581 Z" id="Shape" fill="#FCD8E3"></path>
                    <path d="M23.448,194.208 L14.025,231.897 C13.479,232.853 12.715,235.338 14.025,237.633 C15.336,239.927 20.853,238.588 23.448,237.633 L40.244,194.208 L50.896,160.615 L61.137,183.147 L56.221,230.258 L64.415,230.258 L80.392,183.147 L66.463,130.299 C63.049,131.119 53.517,133.167 50.896,134.806 C48.274,136.444 36.148,135.489 30.412,134.806 L23.448,194.208 Z" id="Shape" fill="#293354"></path>
                    <path d="M54.583,238.861 L56.221,229.849 C60.482,231.16 64.005,229.303 64.824,228.21 C66.463,232.143 75.339,236.13 80.392,237.632 L79.572,242.139 C76.978,242.412 72.444,242.794 68.511,242.139 C64.578,241.483 57.314,239.681 54.583,238.861 Z" id="Shape" fill="#0E1737"></path>
                    <path d="M1.735,116.371 L0.916,149.554 L10.338,149.554 L17.712,120.467 L30.002,99.165 L32.46,112.274 C32.46,115.224 30.822,129.07 30.002,135.625 C32.051,136.035 38.032,137.018 45.57,137.673 C53.108,138.329 64.824,132.484 69.74,129.48 C69.74,126.203 67.692,107.358 69.74,104.49 C71.789,101.623 71.789,86.875 72.608,80.32 C73.263,75.076 93.911,66.118 99.236,62.704 L134.468,30.34 C134.14,28.046 129.415,23.376 127.094,21.328 L122.178,25.015 L88.585,46.727 L61.547,59.017 C60.181,62.841 57.041,68.931 52.125,69.259 C47.209,69.587 42.156,66.391 40.654,63.523 L17.712,77.862 L1.735,116.371 Z" id="Shape" fill="#6885EF"></path>
                    <path d="M45.98,52.872 C45.98,54.839 45.433,60.383 44.751,61.885 C46.799,63.797 51.633,67.456 54.583,66.801 C57.532,66.145 58.816,60.246 59.089,57.379 C58.106,55.412 58.679,52.189 59.089,50.824 C59.417,48.857 62.776,45.908 64.415,44.679 C65.234,42.221 60.728,31.569 60.318,30.34 C59.908,29.111 59.499,22.147 50.896,20.508 C42.293,18.87 37.377,26.244 36.147,29.521 C34.918,32.798 36.147,42.221 41.473,47.137 C45.734,51.07 45.98,51.916 45.98,52.872 Z" id="Shape" fill="#FCD8E3"></path>
                    <path d="M39.834,65.572 L43.112,60.656 L53.354,63.523 L59.089,56.559 L61.957,60.656 L59.089,68.849 L57.041,66.947 C56.767,67.171 55.975,67.784 54.992,68.439 C54.009,69.095 52.484,69.259 51.844,69.259 L51.305,71.307 L39.834,65.572 Z" id="Shape" fill="#A4B6F5"></path>
                    <path d="M32.46,34.027 C33.444,39.271 40.517,46.59 43.931,49.595 C42.292,46.645 41.883,39.626 41.883,36.485 C41.227,32.88 43.521,28.429 44.75,26.653 C47.045,24.687 53.627,24.742 56.631,25.015 C58.27,25.015 59.499,22.83 59.908,21.737 C61.547,16.412 54.992,14.363 50.486,12.315 C45.979,10.267 37.786,18.87 35.328,20.508 C32.87,22.147 31.231,27.473 32.46,34.027 Z" id="Shape" fill="#7D7D7D"></path>
                    <path d="M15.087,266.154 C9.873,265.515 8.524,255.606 9.986,250.427 C11.448,245.247 12.3,240.894 13.381,236.228 C13.75,236.598 15.138,237.418 17.745,237.738 C20.353,238.057 22.169,237.631 22.752,237.377 C22.222,241.697 23.616,243.816 24.073,250.206 C24.53,256.595 21.606,266.954 15.087,266.154 Z" id="Shape" fill="#0E1737"></path>
                </g>
            </g>
        </g>
    </g>
</svg>